{"title":"Star Wars 7 The force Awakens (2015) 1080p Blu-ray x264 AC3 DDR","uid":15506788,"size":4244844524,"categoryP":"video","categoryS":"hd___movies","magnet":"?xt=urn:btih:9d1e350293af7efe05174d7dcc658fd332d0e63b&amp;dn=Star+Wars+7+The+force+Awakens+%282015%29+1080p+Blu-ray+x264+AC3+DDR&amp;tr=udp%3A%2F%2Ftracker.leechers-paradise.org%3A6969&amp;tr=udp%3A%2F%2Fzer0day.ch%3A1337&amp;tr=udp%3A%2F%2Fopen.demonii.com%3A1337&amp;tr=udp%3A%2F%2Ftracker.coppersurfer.tk%3A6969&amp;tr=udp%3A%2F%2Fexodus.desync.com%3A6969","seeders":15,"leechers":12,"uploader":"SaM","files":3,"time":1470598200,"description":"\n1080p Blu-ray Rip x264\r\n\r\nDual Audio\r\nHindi AC3 5.1 Original &amp; English AAC 5.1\r\n\r\n\r\nArabic, English, French, Hindi and Hindi Forced Subtitles \r\n \nhttp://extraimago.com/image/wTZJ \nhttp://extraimago.com/image/wTZ0 \nhttp://extraimago.com/image/wTZz \nhttp://extraimago.com/image/wTZU \nhttp://extraimago.com/image/wTZM \nhttp://extraimago.com/image/wTZ9 \nhttp://extraimago.com/image/wTZ3 \nhttp://extraimago.com/image/wTZb \nhttp://extraimago.com/image/wTZh \nhttp://extraimago.com/image/wTZd \nhttp://extraimago.com/image/wTZI \nhttp://extraimago.com/image/wTZl \nhttp://extraimago.com/image/wTZi \nhttp://extraimago.com/image/wTZm \nhttp://extraimago.com/image/wTZR\r\n\r\nSpecs:\r\nSource: FRENCH BD50 @ DDR\r\n\r\nFormat : Matroska\r\nFile size : 3.91 GiB\r\nDuration : 2h 18mn\r\nOverall bit rate : 4 054 Kbps\r\nEncoded date : UTC 2016-08-03 19:25:21\r\n\r\nVideo\r\nFormat : AVC\r\nFormat/Info : Advanced Video Codec\r\nFormat profile :   \r\nFormat settings, CABAC : Yes\r\nFormat settings, ReFrames : 5 frames\r\nCodec ID : V_MPEG4/ISO/AVC\r\nDuration : 2h 18mn\r\nBit rate : 3 209 Kbps\r\nWidth : 1 920 pixels\r\nHeight : 800 pixels\r\nDisplay aspect ratio : 2.40:1\r\nFrame rate mode : Constant\r\nFrame rate : 23.976 (24000/1001) fps\r\nColor space : YUV\r\nChroma subsampling : 4:2:0\r\nBit depth : 8 bits\r\nScan type : Progressive\r\nBits/(Pixel*Frame) : 0.087\r\nStream size : 3.10 GiB (79%)\r\nColor primaries : BT.709\r\nTransfer characteristics : BT.709\r\nMatrix coefficients : BT.709\r\n\r\nAudio #1\r\nFormat : AC-3\r\nFormat/Info : Audio Coding 3\r\nMode extension : CM (complete main)\r\nFormat settings, Endianness : Big\r\nCodec ID : A_AC3\r\nDuration : 2h 18mn\r\nBit rate mode : Constant\r\nBit rate : 640 Kbps\r\nChannel(s) : 6 channels\r\nChannel positions : Front: L C R, Side: L R, LFE\r\nSampling rate : 48.0 KHz\r\nFrame rate : 31.250 fps (1536 spf)\r\nCompression mode : Lossy\r\nStream size : 632 MiB (16%)\r\nLanguage : Hindi\r\nDefault : Yes\r\nForced : No\r\n\r\nAudio #2\r\nFormat : AAC\r\nFormat/Info : Advanced Audio Codec\r\nFormat profile : LC\r\nCodec ID : A_AAC\r\nDuration : 2h 18mn\r\nBit rate : 192 Kbps\r\nChannel(s) : 6 channels\r\nChannel positions : Front: L C R, Side: L R, LFE\r\nSampling rate : 48.0 KHz\r\nFrame rate : 46.875 fps (1024 spf)\r\nCompression mode : Lossy\r\nDelay relative to video : 9ms\r\nStream size : 189 MiB (10%)\r\nLanguage : English\r\nDefault : No\r\nForced : No\r\n\r\n\r\nChapters : YES","torrent":{"xt":"urn:btih:9d1e350293af7efe05174d7dcc658fd332d0e63b","amp;dn":"Star+Wars+7+The+force+Awakens+%282015%29+1080p+Blu-ray+x264+AC3+DDR","amp;tr":["udp%3A%2F%2Ftracker.leechers-paradise.org%3A6969","udp%3A%2F%2Fzer0day.ch%3A1337","udp%3A%2F%2Fopen.demonii.com%3A1337","udp%3A%2F%2Ftracker.coppersurfer.tk%3A6969","udp%3A%2F%2Fexodus.desync.com%3A6969"],"infoHash":"9d1e350293af7efe05174d7dcc658fd332d0e63b","infoHashBuffer":{"type":"Buffer","data":[157,30,53,2,147,175,126,254,5,23,77,125,204,101,143,211,50,208,230,59]},"announce":[],"urlList":[]}}